<?xml version="1.0" encoding="UTF-8" standalone="no"?>
<!-- Created with Inkscape (http://www.inkscape.org/) -->

<svg
   xmlns:dc="http://purl.org/dc/elements/1.1/"
   xmlns:cc="http://creativecommons.org/ns#"
   xmlns:rdf="http://www.w3.org/1999/02/22-rdf-syntax-ns#"
   xmlns:svg="http://www.w3.org/2000/svg"
   xmlns="http://www.w3.org/2000/svg"
   xmlns:sodipodi="http://sodipodi.sourceforge.net/DTD/sodipodi-0.dtd"
   xmlns:inkscape="http://www.inkscape.org/namespaces/inkscape"
   id="svg2"
   version="1.1"
   inkscape:version="0.91 r13725"
   xml:space="preserve"
   width="297.00009mm"
   height="210.00014mm"
   viewBox="0 0 1052.3625 744.09497"
   sodipodi:docname="1.svg"><metadata
     id="metadata8"><rdf:RDF><cc:Work
         rdf:about=""><dc:format>image/svg+xml</dc:format><dc:type
           rdf:resource="http://purl.org/dc/dcmitype/StillImage" /><dc:title></dc:title></cc:Work></rdf:RDF></metadata><defs
     id="defs6" /><sodipodi:namedview
     pagecolor="#ffffff"
     bordercolor="#666666"
     borderopacity="1"
     objecttolerance="10"
     gridtolerance="10"
     guidetolerance="10"
     inkscape:pageopacity="0"
     inkscape:pageshadow="2"
     inkscape:window-width="1280"
     inkscape:window-height="657"
     id="namedview4"
     showgrid="false"
     units="mm"
     inkscape:document-units="mm"
     inkscape:zoom="0.40987313"
     inkscape:cx="389.67853"
     inkscape:cy="374.06296"
     inkscape:window-x="-8"
     inkscape:window-y="-8"
     inkscape:window-maximized="1"
     inkscape:current-layer="g12" /><g
     id="g10"
     inkscape:groupmode="layer"
     inkscape:label="1"
     transform="scale(1.25,1.25)"><g
       id="g12"><g
         id="g14"
         transform="translate(96.371284,35.3768)" /><g
         id="g18"
         transform="translate(17.566411,-19.518234)"><path
           d="m 347.20185,99.956057 -72.24505,46.657823 -89.58278,28.80185 -132.928784,80.06743 0,47.0193 -17.566411,-10.73503 -0.311611,40.98629 17.878022,-8.7812 0,52.47594 132.928784,80.06743 89.58278,28.80185 72.24505,46.65782 68.53655,0 -16.5905,22.44597 70.45581,0.49816 -16.78067,-22.94413 56.20562,0 72.24405,-46.65782 89.58276,-28.80185 46.23595,-80.06743 0,-51.98799 18.15458,10.34073 0.38774,-38.15421 -18.54232,10.24707 0,-51.4109 -46.23595,-80.06743 -89.58276,-28.80185 -72.24405,-46.657823 -58.64539,0 16.45096,-15.982819 -61.34291,0.856187 16.5905,15.126632 z"
           style="fill:none;stroke:#000000;stroke-width:0.50887209;stroke-linecap:butt;stroke-linejoin:miter;stroke-miterlimit:10;stroke-dasharray:none;stroke-opacity:1"
           id="path20"
           inkscape:connector-curvature="0"
           sodipodi:nodetypes="ccccccccccccccccccccccccccccccccc" /></g></g></g></svg>